<?xml version="1.0" encoding="UTF-8"?>
<svg version="1.1" xmlns="http://www.w3.org/2000/svg" width="661" height="377">
<path d="M0 0 C0.65073486 -0.00619858 1.30146973 -0.01239716 1.97192383 -0.01878357 C3.34357207 -0.02586675 4.71530655 -0.0227337 6.08691406 -0.01000977 C8.18195088 0.00386949 10.27252711 -0.03023439 12.3671875 -0.06835938 C13.70312609 -0.06931058 15.03907025 -0.06745164 16.375 -0.0625 C17.58542969 -0.0632251 18.79585938 -0.0639502 20.04296875 -0.06469727 C23.1875 0.56640625 23.1875 0.56640625 24.87371826 3.06463623 C27.04953763 5.92476294 27.04953763 5.92476294 30.85748291 6.2056427 C32.35550509 6.23779401 33.85426564 6.2425904 35.35253906 6.22583008 C36.58236511 6.24155563 36.58236511 6.24155563 37.83703613 6.25759888 C40.54278335 6.28636424 43.24725218 6.28005587 45.953125 6.2734375 C47.83072515 6.28655168 49.70831118 6.30185504 51.58587646 6.31925964 C56.52444888 6.35915542 61.46265262 6.36930304 66.40136719 6.37329102 C71.44217139 6.38261383 76.48275819 6.42002201 81.5234375 6.45507812 C91.41144814 6.51970057 101.29929668 6.55290247 111.1875 6.56640625 C111.1875 5.90640625 111.1875 5.24640625 111.1875 4.56640625 C113.42276185 1.58894999 114.62799263 0.65522723 118.34790039 0.06469727 C120.17309204 0.06747681 120.17309204 0.06747681 122.03515625 0.0703125 C122.68826279 0.06885727 123.34136932 0.06740204 124.01426697 0.06590271 C125.39017209 0.06755771 126.76609649 0.07907473 128.1418457 0.09985352 C130.2470554 0.12886567 132.34975355 0.12044653 134.45507812 0.10742188 C135.79428306 0.11365828 137.13348006 0.12204847 138.47265625 0.1328125 C139.68832275 0.14256104 140.90398926 0.15230957 142.15649414 0.16235352 C145.1875 0.56640625 145.1875 0.56640625 147.04467773 1.90600586 C149.59650274 5.61353883 149.31783513 9.18400201 149.32794189 13.53720093 C149.33091302 14.25085804 149.33388414 14.96451514 149.3369453 15.69979823 C149.34563458 18.09724057 149.34714073 20.49463299 149.34863281 22.89208984 C149.35326078 24.60853685 149.35828541 26.32498283 149.36367798 28.04142761 C149.376805 32.70879181 149.38324739 37.37614163 149.38768864 42.0435214 C149.39061854 44.9584151 149.39472316 47.87330485 149.39919281 50.78819656 C149.41286779 59.90515321 149.42253476 69.02210086 149.4263947 78.13906705 C149.43087728 88.66921789 149.44843444 99.19923905 149.4773953 109.72935045 C149.49899624 117.86530556 149.50909811 126.00122414 149.51043582 134.13720763 C149.51148488 138.99824419 149.51741421 143.85915884 149.53525543 148.72016525 C149.55170895 153.29200693 149.55390489 157.86363469 149.54511642 162.43549538 C149.54434462 164.11368825 149.54870761 165.79189249 149.55857468 167.47005653 C149.57125418 169.76084171 149.56543971 172.05086465 149.55499268 174.34164429 C149.55645924 175.62364904 149.5579258 176.9056538 149.5594368 178.22650719 C149.14953404 181.90733102 148.65844009 183.79904975 146.1875 186.56640625 C143.42166138 187.19002533 143.42166138 187.19002533 140.00048828 187.18786621 C138.70492004 187.19907501 137.40935181 187.21028381 136.07452393 187.22183228 C134.63561568 187.20892066 133.19671187 187.19550652 131.7578125 187.18164062 C130.24500913 187.1851409 128.73220943 187.19079842 127.21942139 187.19845581 C123.10771495 187.2127273 118.99667537 187.19561973 114.88503265 187.17217064 C110.58628054 187.15209436 106.28755699 187.15793951 101.98876953 187.16027832 C94.76909355 187.16022471 87.54967897 187.14044695 80.33007812 187.10839844 C71.97813323 187.07150402 63.62653089 187.06272248 55.27451515 187.06969595 C47.24674468 187.0759969 39.21909194 187.06525425 31.19134521 187.04573059 C27.77193528 187.03754672 24.35258542 187.03484885 20.9331665 187.03642273 C16.90789518 187.03730042 12.8829504 187.02311715 8.8577652 186.9971962 C7.37871127 186.99002195 5.89962263 186.98795682 4.42055511 186.99131393 C2.40518508 186.99501638 0.38980783 186.97847038 -1.62548828 186.96081543 C-2.7544754 186.95708672 -3.88346252 186.953358 -5.04666138 186.9495163 C-7.8125 186.56640625 -7.8125 186.56640625 -9.67495823 185.48734188 C-11.44438468 182.4993599 -11.19379099 179.88686524 -11.20018005 176.43702698 C-11.20556559 175.70633009 -11.21095113 174.97563321 -11.21649987 174.222794 C-11.230839 171.76758139 -11.22366129 169.31290342 -11.21655273 166.85766602 C-11.22225322 165.10018478 -11.22921622 163.34270725 -11.23735046 161.5852356 C-11.25533289 156.80631832 -11.25410394 152.02758414 -11.24840808 147.24864316 C-11.24532348 143.26238962 -11.25140055 139.27617162 -11.25744683 135.28992313 C-11.27150721 125.88750673 -11.26991826 116.48518116 -11.25854492 107.08276367 C-11.24706246 97.3754882 -11.2611381 87.66848895 -11.2879414 77.96124989 C-11.31007704 69.63336282 -11.31674059 61.3055626 -11.31086498 52.9776482 C-11.30748905 48.00093184 -11.30995259 43.02439257 -11.32711601 38.04770088 C-11.34254906 33.36826349 -11.33867026 28.68923619 -11.31981087 24.00981522 C-11.31611483 22.29089501 -11.31926289 20.57194466 -11.32969666 18.85305214 C-11.34283964 16.50914756 -11.33142022 14.16661404 -11.31370544 11.82276917 C-11.31349616 10.51034524 -11.31328688 9.19792131 -11.31307125 7.84572697 C-10.8125 4.56640625 -10.8125 4.56640625 -8.97770786 2.14622402 C-5.94257635 -0.06832304 -3.73172152 0.03353184 0 0 Z M12.1875 39.56640625 C11.8575 40.88640625 11.5275 42.20640625 11.1875 43.56640625 C49.4675 43.56640625 87.7475 43.56640625 127.1875 43.56640625 C126.6925 41.58640625 126.6925 41.58640625 126.1875 39.56640625 C88.5675 39.56640625 50.9475 39.56640625 12.1875 39.56640625 Z M12.1875 61.56640625 C11.59679986 63.51243899 11.59679986 63.51243899 11.1875 65.56640625 C12.77266744 67.15157369 14.38498472 66.69239063 16.58421326 66.69338989 C18.00813889 66.69761963 18.00813889 66.69761963 19.46083069 66.70193481 C20.51072678 66.69991058 21.56062286 66.69788635 22.64233398 66.69580078 C24.29096436 66.69842926 24.29096436 66.69842926 25.97290039 66.70111084 C29.62648064 66.70553231 33.28001296 66.70259012 36.93359375 66.69921875 C39.4608613 66.69989175 41.98812879 66.70086175 44.51539612 66.70211792 C49.82089919 66.70359533 55.1263849 66.70153376 60.43188477 66.69677734 C66.57065554 66.69133753 72.7093931 66.69309536 78.84816307 66.69860375 C84.74548396 66.70368427 90.6427945 66.70315181 96.54011726 66.70022202 C99.05323351 66.69955296 101.5663506 66.70038043 104.07946587 66.70270157 C107.58742419 66.7052299 111.09531799 66.70138475 114.60327148 66.69580078 C116.17507927 66.69883713 116.17507927 66.69883713 117.77864075 66.70193481 C119.20679611 66.69770508 119.20679611 66.69770508 120.6638031 66.69338989 C121.49396155 66.69301287 122.32412001 66.69263584 123.17943478 66.69224739 C125.25951643 66.693063 125.25951643 66.693063 127.1875 65.56640625 C127.1875 64.57640625 127.1875 63.58640625 127.1875 62.56640625 C121.60886218 61.38730515 116.17202659 61.43244226 110.50048828 61.45288086 C109.43647293 61.45273483 108.37245758 61.45258881 107.27619934 61.45243835 C103.77004944 61.45313331 100.26395309 61.4609062 96.7578125 61.46875 C94.32258127 61.47061566 91.88734966 61.47203887 89.45211792 61.47303772 C83.05048583 61.47685123 76.64887652 61.48667158 70.24725342 61.4977417 C63.71171375 61.50798088 57.17617039 61.51254071 50.640625 61.51757812 C37.82290696 61.52829488 25.00520469 61.5451644 12.1875 61.56640625 Z M12.1875 83.56640625 C12.1875 84.88640625 12.1875 86.20640625 12.1875 87.56640625 C27.6975 87.56640625 43.2075 87.56640625 59.1875 87.56640625 C59.1875 86.57640625 59.1875 85.58640625 59.1875 84.56640625 C58.20227856 83.3611238 58.20227856 83.3611238 56.32090759 83.44615173 C55.09846092 83.44948265 55.09846092 83.44948265 53.85131836 83.45288086 C52.9304393 83.45295639 52.00956024 83.45303192 51.06077576 83.45310974 C49.55922691 83.46085167 49.55922691 83.46085167 48.02734375 83.46875 C46.49793907 83.47087242 46.49793907 83.47087242 44.93763733 83.47303772 C41.66672893 83.47865528 38.39588787 83.49121075 35.125 83.50390625 C32.91341244 83.50891899 30.70182382 83.51348229 28.49023438 83.51757812 C23.05596643 83.52863041 17.62173803 83.54538562 12.1875 83.56640625 Z M106.1875 93.56640625 C105.8575 95.21640625 105.5275 96.86640625 105.1875 98.56640625 C109.4775 98.56640625 113.7675 98.56640625 118.1875 98.56640625 C111.09679785 106.9763088 103.23401387 114.58386227 95.4140625 122.3046875 C93.14360115 124.53360525 93.14360115 124.53360525 91.1875 127.06640625 C89.0194948 129.77641275 86.67085462 132.14362126 84.1875 134.56640625 C83.341875 135.47390625 82.49625 136.38140625 81.625 137.31640625 C79.1875 139.56640625 79.1875 139.56640625 77.1875 140.69140625 C75.1875 140.56640625 75.1875 140.56640625 72.6875 138.44140625 C70.44766992 135.86560166 68.31932469 133.23118711 66.1875 130.56640625 C63.79062046 128.04660981 61.40344333 125.73916092 58.6875 123.56640625 C55.98468914 121.40415756 53.59854118 119.04633432 51.1875 116.56640625 C47.9606002 117.9870314 45.78807488 119.70886066 43.296875 122.19140625 C42.58789062 122.8978125 41.87890625 123.60421875 41.1484375 124.33203125 C40.41882813 125.069375 39.68921875 125.80671875 38.9375 126.56640625 C38.19242187 127.30375 37.44734375 128.04109375 36.6796875 128.80078125 C35.97585938 129.5071875 35.27203125 130.21359375 34.546875 130.94140625 C33.90202148 131.58851563 33.25716797 132.235625 32.59277344 132.90234375 C30.97243391 134.45806981 30.97243391 134.45806981 31.1875 136.56640625 C30.61515625 136.81390625 30.0428125 137.06140625 29.453125 137.31640625 C26.83739389 138.75956824 25.03976544 140.44856847 22.9375 142.56640625 C21.87789063 143.61828125 21.87789063 143.61828125 20.796875 144.69140625 C18.97039601 146.40751393 18.97039601 146.40751393 19.1875 148.56640625 C18.32125 148.90671875 18.32125 148.90671875 17.4375 149.25390625 C14.55862473 150.93325016 13.01302381 152.79431454 11.1875 155.56640625 C11.5175 156.55640625 11.8475 157.54640625 12.1875 158.56640625 C15.02991762 157.27306154 17.09525233 155.91050229 19.30371094 153.70898438 C19.88401062 153.13498901 20.4643103 152.56099365 21.06219482 151.96960449 C21.98273651 151.04299011 21.98273651 151.04299011 22.921875 150.09765625 C23.55990051 149.46154419 24.19792603 148.82543213 24.85528564 148.17004395 C26.19911574 146.82757238 27.54043329 145.48258164 28.87939453 144.13525391 C30.93692465 142.0669846 33.00494049 140.00963297 35.07421875 137.953125 C36.37824625 136.64777654 37.68165356 135.34180815 38.984375 134.03515625 C39.91706207 133.10854187 39.91706207 133.10854187 40.86859131 132.16320801 C44.08171314 129.38091565 44.08171314 129.38091565 45.1875 125.56640625 C47.1675 124.90640625 49.1475 124.24640625 51.1875 123.56640625 C51.909375 124.30890625 52.63125 125.05140625 53.375 125.81640625 C56.0570946 128.52990825 56.0570946 128.52990825 58.6875 130.56640625 C63.12631656 134.1174595 66.6510455 138.14583812 70.1875 142.56640625 C71.83533606 144.25169313 73.49752677 145.92337672 75.1875 147.56640625 C79.10591827 146.26026683 81.51390809 144.73510777 84.1875 141.56640625 C84.1875 140.90640625 84.1875 140.24640625 84.1875 139.56640625 C84.8475 139.56640625 85.5075 139.56640625 86.1875 139.56640625 C87.822189 137.91191941 87.822189 137.91191941 89.5 135.81640625 C92.18693328 132.65105421 94.87896857 130.09133813 98.1875 127.56640625 C101.80988907 124.0482145 105.23531575 120.36910384 108.625 116.62890625 C119.40645404 104.8267549 119.40645404 104.8267549 123.1875 103.56640625 C123.1875 107.52640625 123.1875 111.48640625 123.1875 115.56640625 C124.1775 115.56640625 125.1675 115.56640625 126.1875 115.56640625 C128.4272148 113.32669145 127.37281833 108.13743137 127.375 105.12890625 C127.38724609 104.24396484 127.39949219 103.35902344 127.41210938 102.44726562 C127.41404297 101.60099609 127.41597656 100.75472656 127.41796875 99.8828125 C127.42207764 99.10365479 127.42618652 98.32449707 127.43041992 97.52172852 C127.3615902 95.33080653 127.3615902 95.33080653 125.1875 93.56640625 C123.15282566 93.2895456 123.15282566 93.2895456 120.8359375 93.37109375 C119.98515625 93.37753906 119.134375 93.38398438 118.2578125 93.390625 C117.36835938 93.40738281 116.47890625 93.42414063 115.5625 93.44140625 C114.6653125 93.45042969 113.768125 93.45945312 112.84375 93.46875 C110.62473414 93.49235655 108.40624923 93.52528315 106.1875 93.56640625 Z " fill="#B1E5B4" transform="translate(277.8125,104.43359375)"/>
<path d="M0 0 C1.32115059 0.00636726 1.32115059 0.00636726 2.66899109 0.01286316 C5.47104985 0.02960231 8.27237884 0.06724545 11.07421875 0.10546875 C12.97850521 0.12052176 14.88280299 0.13420909 16.78710938 0.14648438 C21.44559197 0.17949021 26.1035318 0.23123946 30.76171875 0.29296875 C30.76171875 5.24296875 30.76171875 10.19296875 30.76171875 15.29296875 C27.94253906 15.36644531 27.94253906 15.36644531 25.06640625 15.44140625 C22.58982937 15.51645403 20.11326758 15.59200099 17.63671875 15.66796875 C15.78046875 15.714375 15.78046875 15.714375 13.88671875 15.76171875 C12.68789063 15.80039063 11.4890625 15.8390625 10.25390625 15.87890625 C9.1541748 15.91032715 8.05444336 15.94174805 6.92138672 15.97412109 C3.54161852 16.31517945 0.85149925 16.86931874 -2.23828125 18.29296875 C-3.67422296 21.8486515 -3.36710437 25.6812665 -3.37199402 29.45994568 C-3.37425958 30.18262432 -3.37652513 30.90530295 -3.37885934 31.64988095 C-3.38519033 34.0718607 -3.38437056 36.49378437 -3.38354492 38.91577148 C-3.38653695 40.65206983 -3.38993957 42.38836751 -3.39372253 44.12466431 C-3.40256162 48.84155843 -3.40490059 53.55843442 -3.40553832 58.27533603 C-3.40648759 62.21182734 -3.41016605 66.14831443 -3.41371042 70.08480412 C-3.42185437 79.37074724 -3.42429468 88.65668067 -3.42358398 97.94262695 C-3.42298297 107.52542253 -3.43353975 117.10816185 -3.44932765 126.69094318 C-3.46239651 134.91608967 -3.46776817 143.14121776 -3.46712857 151.36637455 C-3.46687343 156.27990353 -3.46973403 161.19338252 -3.48030663 166.10690117 C-3.48997677 170.7271484 -3.49007423 175.34729772 -3.48278999 179.96754837 C-3.48174285 181.66347585 -3.4841147 183.3594094 -3.49015045 185.05532646 C-3.49785502 187.37000267 -3.49323589 189.68433941 -3.48551941 191.99900818 C-3.48633656 193.94219012 -3.48633656 193.94219012 -3.48717022 195.92462826 C-3.24260226 199.23449035 -2.87593858 201.41556859 -1.23828125 204.29296875 C1.96186871 206.68032485 5.08137187 206.55080179 8.979599 206.56712341 C10.25682327 206.57709854 11.53404755 206.58707367 12.84997559 206.59735107 C14.26318347 206.59824683 15.67639152 206.59891042 17.08959961 206.59936523 C18.57959915 206.60698764 20.06959476 206.61541528 21.55958557 206.62458801 C25.60501755 206.64652917 29.65037396 206.65533113 33.69585872 206.66041446 C36.22331498 206.66405782 38.75075144 206.6702977 41.27820015 206.67741585 C50.09555049 206.7019069 58.912842 206.71496195 67.73022461 206.71850586 C75.94986965 206.72214314 84.16914176 206.75205293 92.38867277 206.79391044 C99.44611103 206.82859052 106.50342552 206.84405388 113.56094843 206.84475189 C117.77597141 206.84554535 121.99061429 206.85431555 126.20554924 206.88274956 C130.16936084 206.90889219 134.13247613 206.91115732 138.09633446 206.89509392 C139.55039232 206.89327648 141.00448987 206.89999694 142.45846176 206.91591263 C144.44448977 206.93632592 146.43077971 206.92284854 148.41685486 206.90769958 C150.0834989 206.91071658 150.0834989 206.91071658 151.78381252 206.91379452 C155.76630298 206.08353577 157.25377627 204.43269844 159.76171875 201.29296875 C161.27447344 197.78835141 160.87998994 193.92506921 160.8709259 190.15722656 C160.87051904 189.43792591 160.87011217 188.71862526 160.86969298 187.97752762 C160.86699536 185.56701375 160.856984 183.15658732 160.84692383 180.74609375 C160.84332775 179.01802647 160.84012284 177.28995833 160.83728027 175.56188965 C160.82790828 170.86776636 160.8115755 166.17369374 160.79290986 161.479599 C160.78127049 158.54812844 160.77060401 155.61665574 160.76016808 152.68518066 C160.72693721 143.5164103 160.68888289 134.34767588 160.64480287 125.17895126 C160.59403389 114.58829219 160.55981772 103.9977467 160.53962213 93.40698624 C160.52295863 85.22338998 160.49110619 77.03993963 160.44777602 68.8564415 C160.42225443 63.96696047 160.4033407 59.07766153 160.40040016 54.18811035 C160.3972538 49.59149319 160.37532634 44.99534977 160.3388443 40.39888 C160.32871229 38.71062417 160.32540731 37.02231173 160.32937431 35.33403015 C160.33374817 33.03170894 160.313696 30.73085669 160.28742981 28.42871094 C160.27995082 26.49520782 160.27995082 26.49520782 160.27232075 24.52264404 C159.67497781 20.74431231 158.74528559 19.59825272 155.76171875 17.29296875 C153.05927175 15.94174525 150.97068355 16.19758703 147.94921875 16.23046875 C146.79164063 16.23820312 145.6340625 16.2459375 144.44140625 16.25390625 C143.22710937 16.26679687 142.0128125 16.2796875 140.76171875 16.29296875 C138.36592983 16.31840175 135.97008918 16.33946071 133.57421875 16.35546875 C132.50816406 16.36707031 131.44210937 16.37867187 130.34375 16.390625 C127.76171875 16.29296875 127.76171875 16.29296875 125.76171875 15.29296875 C125.73456492 13.54305541 125.71525324 11.7930193 125.69921875 10.04296875 C125.68761719 9.0684375 125.67601562 8.09390625 125.6640625 7.08984375 C125.75036618 4.6181063 126.12133605 2.65950411 126.76171875 0.29296875 C132.33004176 0.1440729 137.89719343 0.03549605 143.46704102 -0.03662109 C145.35949908 -0.06669861 147.25181884 -0.10757258 149.14379883 -0.15966797 C151.87225532 -0.23288622 154.59886158 -0.26657667 157.328125 -0.29296875 C158.16694717 -0.32393646 159.00576935 -0.35490417 159.87001038 -0.3868103 C165.47730615 -0.38998554 168.36475008 0.87662404 172.46446228 4.70809937 C175.50136741 8.41831248 174.90995363 12.86721562 174.90888977 17.39595032 C174.91256646 18.23140843 174.91624315 19.06686654 174.92003125 19.92764157 C174.93107641 22.73733036 174.93491332 25.54698219 174.9387207 28.35668945 C174.94498465 30.3670768 174.95163139 32.37746299 174.95863342 34.3878479 C174.97604768 39.85690293 174.98659603 45.32594922 174.99483895 50.79502511 C174.99998748 54.2104452 175.00606323 57.62586257 175.01235008 61.04128075 C175.03140208 71.72320371 175.04563404 82.40511976 175.05396205 93.08705646 C175.06373998 105.42554791 175.09007405 117.76386023 175.13046294 130.10228854 C175.16059723 139.63442493 175.17542831 149.16650988 175.17874306 158.69869298 C175.18109631 164.39424945 175.19009278 170.08961455 175.21520424 175.78512001 C175.23844333 181.14247586 175.2427349 186.49951375 175.23244286 191.85690689 C175.2319464 193.8233324 175.23829912 195.78977335 175.2519989 197.7561512 C175.26965686 200.44082901 175.26264192 203.12435817 175.24946594 205.80903625 C175.26043519 206.58715725 175.27140443 207.36527824 175.28270608 208.16697866 C175.22129616 213.34972506 174.12870349 216.35675084 170.76171875 220.29296875 C167.33969838 222.86828712 163.81595229 222.5495125 159.63943481 222.56039429 C158.92154529 222.5649254 158.20365577 222.56945651 157.46401203 222.57412493 C155.05813662 222.58678665 152.65248707 222.58514744 150.24658203 222.58349609 C148.52175607 222.58948023 146.79693279 222.59628552 145.07211304 222.60385132 C140.38613177 222.62152996 135.70022352 222.62620748 131.01421213 222.62748289 C127.10266245 222.62938166 123.1911298 222.63673893 119.27958667 222.64382708 C110.05112844 222.66011564 100.82270923 222.6649956 91.59423828 222.66357422 C82.07387554 222.66237257 72.55373942 222.68347797 63.03343403 222.71506155 C54.860068 222.74121063 46.68677604 222.75194209 38.51336849 222.7506634 C33.6316048 222.75015337 28.7500425 222.75585901 23.86832047 222.7770195 C19.27670207 222.79637892 14.68547763 222.79654214 10.09384537 222.78198624 C8.40962143 222.7798942 6.72537298 222.78462257 5.0411911 222.79670715 C2.73965434 222.81215053 0.43947756 222.802859 -1.86203003 222.78744507 C-3.14918852 222.7885346 -4.43634701 222.78962414 -5.7625103 222.79074669 C-9.99738543 222.18425465 -12.0341109 221.12120476 -15.23828125 218.29296875 C-18.1471771 213.22227171 -18.67175424 208.64464647 -18.6259613 202.9122467 C-18.63134684 202.09519978 -18.63673238 201.27815287 -18.64228112 200.43634695 C-18.65652953 197.71269882 -18.64946475 194.98953884 -18.64233398 192.26586914 C-18.64803917 190.30739452 -18.65500401 188.34892322 -18.66313171 186.39045715 C-18.68106149 181.08053848 -18.67989508 175.77078508 -18.67418933 170.46084523 C-18.67109731 166.02492505 -18.67719007 161.5890366 -18.68322808 157.15312093 C-18.69727103 146.68709605 -18.69571382 136.22115279 -18.68432617 125.75512695 C-18.67284418 114.96404303 -18.68692261 104.17320761 -18.71372265 93.38215643 C-18.73588534 84.11061163 -18.74251576 74.8391448 -18.73664623 65.5675754 C-18.73327696 60.03300204 -18.73568997 54.49858798 -18.75289726 48.96403694 C-18.76837335 43.75925222 -18.76440328 38.55483545 -18.74559212 33.35006523 C-18.74190815 31.44253993 -18.74500909 29.53498732 -18.75547791 27.62748718 C-18.76870277 25.01812723 -18.75712758 22.40998276 -18.73948669 19.80067444 C-18.7538942 18.6755063 -18.7538942 18.6755063 -18.76859277 17.5276075 C-18.69283086 12.0599223 -17.22551924 7.88583316 -14.23828125 3.29296875 C-10.0269991 -0.54824681 -5.4008887 -0.09848331 0 0 Z " fill="#ACDCB0" transform="translate(268.23828125,86.70703125)"/>
<path d="M0 0 C4.64098854 3.03974986 6.66882048 6.07862101 9 11 C9.10546875 13.72265625 9.10546875 13.72265625 9 16 C9.6705542 15.97905273 10.3411084 15.95810547 11.03198242 15.93652344 C14.0836678 15.85313973 17.13511317 15.80126984 20.1875 15.75 C21.77014648 15.69972656 21.77014648 15.69972656 23.38476562 15.6484375 C27.7170746 15.59377114 31.15155519 15.66620259 35.20703125 17.26171875 C38.21800666 21.86018011 37.63845619 26.70361627 37.5 32.0625 C37.50386719 33.71475586 37.50386719 33.71475586 37.5078125 35.40039062 C37.41062025 43.35557654 37.41062025 43.35557654 35.96153259 45.62976074 C32.92827976 47.748656 29.76536853 47.42548829 26.19555664 47.40405273 C25.0048481 47.41434761 25.0048481 47.41434761 23.79008484 47.42485046 C21.16326056 47.44316778 18.53703076 47.43927396 15.91015625 47.43359375 C14.08556422 47.43815333 12.26097391 47.44345823 10.43638611 47.44947815 C6.61059598 47.45841904 2.78501449 47.45597521 -1.04077148 47.44604492 C-5.94495053 47.43455639 -10.84840944 47.4547598 -15.75249386 47.48396206 C-19.52116984 47.5023039 -23.28967263 47.5020356 -27.05838203 47.49632454 C-28.86650159 47.49617106 -30.6746327 47.50223703 -32.48270988 47.51461601 C-35.01098733 47.52948575 -37.53792669 47.51887934 -40.06616211 47.50170898 C-40.81382843 47.51137695 -41.56149475 47.52104492 -42.33181763 47.53100586 C-45.80226027 47.48162425 -47.66847607 47.25309529 -50.46351624 45.11927795 C-52.33575574 42.53689082 -52.51491503 41.10648402 -52.53125 37.9375 C-52.53640625 36.97585937 -52.5415625 36.01421875 -52.546875 35.0234375 C-52.53140625 34.02570313 -52.5159375 33.02796875 -52.5 32 C-52.51546875 31.00226563 -52.5309375 30.00453125 -52.546875 28.9765625 C-52.50798314 21.72323023 -52.50798314 21.72323023 -50.15625 18.375 C-46.74377211 16.19892714 -44.06457206 15.87839653 -40.11328125 15.90234375 C-39.17548828 15.90556641 -38.23769531 15.90878906 -37.27148438 15.91210938 C-35.80678711 15.92467773 -35.80678711 15.92467773 -34.3125 15.9375 C-32.83040039 15.94426758 -32.83040039 15.94426758 -31.31835938 15.95117188 C-28.87884526 15.96295697 -26.43945311 15.97940989 -24 16 C-23.81606689 15.32018066 -23.63213379 14.64036133 -23.44262695 13.93994141 C-23.18956787 13.04452637 -22.93650879 12.14911133 -22.67578125 11.2265625 C-22.42997314 10.34049316 -22.18416504 9.45442383 -21.9309082 8.54150391 C-20.70944994 5.20675947 -19.18862677 3.12959662 -16.36328125 1 C-11.2235126 -1.17484426 -5.41434794 -0.98559052 0 0 Z M-10 9 C-10.66 9.66 -11.32 10.32 -12 11 C-11.98333671 13.50324332 -11.98333671 13.50324332 -11 16 C-9.0431712 17.82337753 -9.0431712 17.82337753 -7 19 C-5.35 17.68 -3.7 16.36 -2 15 C-2.33 13.35 -2.66 11.7 -3 10 C-6.40320934 9.32326553 -6.40320934 9.32326553 -10 9 Z " fill="#AFE3B4" transform="translate(354,61)"/>
<path d="M0 0 C1.794375 -0.01546875 1.794375 -0.01546875 3.625 -0.03125 C8.21493302 0.69123946 10.54299526 2.63386498 13.36328125 6.24609375 C15.56204035 10.16404721 16 11.83505445 16 16.5 C23.59 16.5 31.18 16.5 39 16.5 C38.505 17.985 38.505 17.985 38 19.5 C34.37501666 19.52893932 30.75006287 19.54677792 27.125 19.5625 C25.57619141 19.57506836 25.57619141 19.57506836 23.99609375 19.58789062 C23.00996094 19.59111328 22.02382813 19.59433594 21.0078125 19.59765625 C19.64100342 19.60551147 19.64100342 19.60551147 18.24658203 19.61352539 C16 19.5 16 19.5 14 18.5 C13.3671875 16.65234375 13.3671875 16.65234375 12.875 14.4375 C12.70742188 13.70402344 12.53984375 12.97054687 12.3671875 12.21484375 C12.24601562 11.64894531 12.12484375 11.08304688 12 10.5 C9.03 10.005 9.03 10.005 6 9.5 C6.12375 11.3871875 6.12375 11.3871875 6.25 13.3125 C6.265625 15.51953125 6.265625 15.51953125 6 17.5 C4 19.5 4 19.5 2 20.5 C1.34 19.84 0.68 19.18 0 18.5 C0.66 18.108125 1.32 17.71625 2 17.3125 C4.29166667 15.64583333 4.29166667 15.64583333 4.25 12.8125 C4.12625 11.6678125 4.12625 11.6678125 4 10.5 C1.69 10.5 -0.62 10.5 -3 10.5 C-3.144375 11.28375 -3.28875 12.0675 -3.4375 12.875 C-4 15.5 -4 15.5 -5 17.5 C-5.99 16.18 -6.98 14.86 -8 13.5 C-8.33 14.82 -8.66 16.14 -9 17.5 C-9.33 16.51 -9.66 15.52 -10 14.5 C-10.66 14.17 -11.32 13.84 -12 13.5 C-11.67 11.19 -11.34 8.88 -11 6.5 C-11.99 7.16 -12.98 7.82 -14 8.5 C-11.38795073 1.85114731 -6.8543042 -0.05908883 0 0 Z " fill="#AEDCB3" transform="translate(347,60.5)"/>
<path d="M0 0 C14.66427109 -0.04671776 29.32853232 -0.08198774 43.9928627 -0.10362434 C50.80174497 -0.11393756 57.610581 -0.12799872 64.41943359 -0.15087891 C70.98759611 -0.17293976 77.55572313 -0.18456165 84.12392426 -0.18975449 C86.63260404 -0.19345621 89.14128112 -0.20068452 91.64994049 -0.21146011 C95.15763584 -0.22593073 98.66513128 -0.22797978 102.17285156 -0.22705078 C103.73623009 -0.23783661 103.73623009 -0.23783661 105.33119202 -0.24884033 C106.28749008 -0.246091 107.24378815 -0.24334167 108.22906494 -0.24050903 C109.05867863 -0.24235262 109.88829231 -0.24419621 110.74304581 -0.24609566 C113.22247416 0.02425832 114.85479969 0.75841257 117 2 C102.0404615 2.15382799 87.08087409 2.30186326 72.1212101 2.4429636 C65.17550288 2.5086116 58.22982396 2.57616981 51.28417969 2.64819336 C44.58638669 2.71764147 37.88856246 2.78180807 31.19068527 2.84269524 C28.63010304 2.86684692 26.06953712 2.89279487 23.50899124 2.92053413 C19.93391728 2.95896298 16.35883959 2.99111368 12.78369141 3.02172852 C11.71554703 3.03467453 10.64740265 3.04762054 9.54689026 3.06095886 C8.57651321 3.06799835 7.60613617 3.07503784 6.60635376 3.08229065 C5.7601478 3.09058679 4.91394184 3.09888292 4.04209328 3.10743046 C2 3 2 3 0 2 C0 1.34 0 0.68 0 0 Z " fill="#B7CDB8" transform="translate(288,148)"/>
<path d="M0 0 C0 0.66 0 1.32 0 2 C-0.99 2.33 -1.98 2.66 -3 3 C-4.02281518 5.09719872 -4.02281518 5.09719872 -4.6875 7.5625 C-4.93886719 8.38878906 -5.19023437 9.21507813 -5.44921875 10.06640625 C-5.63097656 10.70449219 -5.81273437 11.34257813 -6 12 C-6.66 12 -7.32 12 -8 12 C-8 57.54 -8 103.08 -8 150 C-8.33 150 -8.66 150 -9 150 C-9.09353109 131.88447467 -9.16402212 113.7690122 -9.20724869 95.65329742 C-9.22785496 87.24143898 -9.25593839 78.82973076 -9.30175781 70.41796875 C-9.34168503 63.08441868 -9.36744688 55.75097743 -9.37635398 48.41732168 C-9.38155882 44.53583393 -9.39375127 40.65465744 -9.42292023 36.77326965 C-9.45018264 33.11575233 -9.45842339 29.45867283 -9.45243073 25.80106354 C-9.45404628 23.8273 -9.47551226 21.85358355 -9.49768066 19.87994385 C-9.46490308 12.79242231 -8.94840971 7.9707768 -5 2 C-2 0 -2 0 0 0 Z " fill="#A8B7A8" transform="translate(259,88)"/>
<path d="M0 0 C2.375 1.3125 2.375 1.3125 4.375 3.3125 C4 5.4375 4 5.4375 3.375 7.3125 C2.83875 7.10625 2.3025 6.9 1.75 6.6875 C-1.5050091 6.1735512 -3.62456947 7.04565156 -6.625 8.3125 C-6.955 8.9725 -7.285 9.6325 -7.625 10.3125 C-8.945 9.6525 -10.265 8.9925 -11.625 8.3125 C-4.11318898 -1.07726378 -4.11318898 -1.07726378 0 0 Z " fill="#BAE6BF" transform="translate(329.625,227.6875)"/>
<path d="M0 0 C0.33 0.66 0.66 1.32 1 2 C0 4 0 4 -1.875 4.875 C-4.36803279 6.19484089 -5.35323143 7.7544065 -7 10 C-7.66 10 -8.32 10 -9 10 C-9.061875 10.7425 -9.12375 11.485 -9.1875 12.25 C-10.24185138 15.8185739 -11.99909773 16.92245228 -15 19 C-15.6875 17.1875 -15.6875 17.1875 -16 15 C-14.6875 13.25 -14.6875 13.25 -13 12 C-12.34 12 -11.68 12 -11 12 C-10.67 11.01 -10.34 10.02 -10 9 C-6.91296331 5.65571025 -3.60027668 2.7773563 0 0 Z " fill="#A6C9A8" transform="translate(375,232)"/>
<path d="M0 0 C0.66 0.99 1.32 1.98 2 3 C0.35 3.66 -1.3 4.32 -3 5 C-3.66 9.95 -4.32 14.9 -5 20 C-5.33 20 -5.66 20 -6 20 C-8.02780269 6.4529148 -8.02780269 6.4529148 -5.5078125 2.890625 C-3.5625 1.5625 -3.5625 1.5625 0 0 Z " fill="#9ABE9C" transform="translate(269,100)"/>
<path d="M0 0 C0 0.66 0 1.32 0 2 C-0.99 2.33 -1.98 2.66 -3 3 C-4.02281518 5.09719872 -4.02281518 5.09719872 -4.6875 7.5625 C-4.93886719 8.38878906 -5.19023437 9.21507813 -5.44921875 10.06640625 C-5.63097656 10.70449219 -5.81273437 11.34257813 -6 12 C-6.66 12 -7.32 12 -8 12 C-8 15.96 -8 19.92 -8 24 C-8.33 24 -8.66 24 -9 24 C-9.75515079 9.06479546 -9.75515079 9.06479546 -5 2 C-2 0 -2 0 0 0 Z " fill="#A0C5A2" transform="translate(259,88)"/>
<path d="M0 0 C0.66 0.99 1.32 1.98 2 3 C0.5023304 5.49824035 -1.01558218 7.86004673 -3 10 C-5.8125 10.4375 -5.8125 10.4375 -8 10 C-6.34908222 5.70761377 -3.26245434 3.1206085 0 0 Z " fill="#ACD4B1" transform="translate(317,237)"/>
<path d="M0 0 C0 0.66 0 1.32 0 2 C0.66 2 1.32 2 2 2 C2 2.66 2 3.32 2 4 C-9.385 3.505 -9.385 3.505 -21 3 C-21 2.67 -21 2.34 -21 2 C-19.19402344 1.90912109 -19.19402344 1.90912109 -17.3515625 1.81640625 C-15.77602923 1.73200268 -14.20050904 1.64735459 -12.625 1.5625 C-11.8309375 1.52318359 -11.036875 1.48386719 -10.21875 1.44335938 C-6.68012647 1.2484352 -3.35189233 0 0 0 Z " fill="#B6DFBA" transform="translate(404,195)"/>
<path d="M0 0 C0.99 0.66 1.98 1.32 3 2 C0.03 4.97 -2.94 7.94 -6 11 C-6.33 10.01 -6.66 9.02 -7 8 C-6.071875 7.6596875 -6.071875 7.6596875 -5.125 7.3125 C-2.37585439 5.6144983 -2.00115914 4.00347742 -1 1 C-0.67 0.67 -0.34 0.34 0 0 Z " fill="#AACBAC" transform="translate(322,222)"/>
<path d="M0 0 C1.671549 0.30791692 3.33805547 0.64386903 5 1 C5.99 1 6.98 1 8 1 C7.67 2.65 7.34 4.3 7 6 C5.68 5.67 4.36 5.34 3 5 C3 4.34 3 3.68 3 3 C1.68 2.34 0.36 1.68 -1 1 C-0.67 0.67 -0.34 0.34 0 0 Z " fill="#A9D9AE" transform="translate(419,98)"/>
<path d="M0 0 C0.99 0 1.98 0 3 0 C3 3.3 3 6.6 3 10 C2.34 8.68 1.68 7.36 1 6 C0.01 5.34 -0.98 4.68 -2 4 C-1.34 2.68 -0.68 1.36 0 0 Z " fill="#C7DFC8" transform="translate(398,208)"/>
<path d="M0 0 C5.57142857 5.14285714 5.57142857 5.14285714 6 9 C3.525 8.01 3.525 8.01 1 7 C1 6.34 1 5.68 1 5 C-0.45833358 3.37485532 -0.45833358 3.37485532 -2 2 C-1.34 2 -0.68 2 0 2 C0 1.34 0 0.68 0 0 Z " fill="#A2C7A7" transform="translate(356,63)"/>
<path d="M0 0 C0.99 0 1.98 0 3 0 C3.33 3.63 3.66 7.26 4 11 C3.01 11.495 3.01 11.495 2 12 C1.34 11.67 0.68 11.34 0 11 C0 7.37 0 3.74 0 0 Z " fill="#BAE0C0" transform="translate(394,91)"/>
<path d="M0 0 C0.8125 1.6875 0.8125 1.6875 1 4 C-1.1613627 6.51185394 -3.01962439 8.50981219 -6 10 C-5.58578031 5.16743695 -3.53586014 3.17320782 0 0 Z " fill="#AAD0AD" transform="translate(395,211)"/>
<path d="M0 0 C0.90492188 0.02320313 1.80984375 0.04640625 2.7421875 0.0703125 C4.10730469 0.09738281 4.10730469 0.09738281 5.5 0.125 C6.19867188 0.14820313 6.89734375 0.17140625 7.6171875 0.1953125 C7.6171875 0.8553125 7.6171875 1.5153125 7.6171875 2.1953125 C3.36152203 3.35594854 -0.0663203 2.95704642 -4.3828125 2.1953125 C-2.3828125 0.1953125 -2.3828125 0.1953125 0 0 Z " fill="#BCE2C2" transform="translate(388.3828125,202.8046875)"/>
<path d="M0 0 C4.29 0.33 8.58 0.66 13 1 C13 1.33 13 1.66 13 2 C8.71 2.66 4.42 3.32 0 4 C0 2.68 0 1.36 0 0 Z " fill="#B3DAB9" transform="translate(395,87)"/>
<path d="M0 0 C0.99 0.66 1.98 1.32 3 2 C-2 5 -2 5 -7 8 C-5.50902342 4.2047869 -3.24299151 2.38957269 0 0 Z " fill="#A2C1A6" transform="translate(340,61)"/>
<path d="M0 0 C0.99 0.33 1.98 0.66 3 1 C3.25 4.3125 3.25 4.3125 3 8 C1 9.9375 1 9.9375 -1 11 C-1.66 10.34 -2.32 9.68 -3 9 C-1.68 8.01 -0.36 7.02 1 6 C0.67 4.02 0.34 2.04 0 0 Z " fill="#A6CCAB" transform="translate(350,70)"/>
<path d="M0 0 C0.66 0.33 1.32 0.66 2 1 C1.690625 1.680625 1.38125 2.36125 1.0625 3.0625 C-0.13370649 6.36965912 -0.59005397 9.51545878 -1 13 C-1.33 13 -1.66 13 -2 13 C-2.05391993 11.20866022 -2.09275571 9.41686101 -2.125 7.625 C-2.14820313 6.62726563 -2.17140625 5.62953125 -2.1953125 4.6015625 C-2 2 -2 2 0 0 Z " fill="#BCE3C1" transform="translate(270,107)"/>
<path d="M0 0 C-0.33 1.32 -0.66 2.64 -1 4 C-2.32 4.33 -3.64 4.66 -5 5 C-4.625 3.0625 -4.625 3.0625 -4 1 C-2 0 -2 0 0 0 Z " fill="#ADCBB0" transform="translate(426,286)"/>
<path d="M0 0 C1.65 0 3.3 0 5 0 C3.35 1.98 1.7 3.96 0 6 C-0.99 5.34 -1.98 4.68 -3 4 C-2.01 4 -1.02 4 0 4 C0 2.68 0 1.36 0 0 Z " fill="#ABCBAE" transform="translate(310,233)"/>
<path d="M0 0 C0 0.99 0 1.98 0 3 C-1.65 3.66 -3.3 4.32 -5 5 C-5.33 4.01 -5.66 3.02 -6 2 C-2.25 0 -2.25 0 0 0 Z " fill="#B1CCB2" transform="translate(439,304)"/>
<path d="M0 0 C1.875 0.25 1.875 0.25 4 1 C5.25 3.0625 5.25 3.0625 6 5 C4.125 4.75 4.125 4.75 2 4 C0.75 1.9375 0.75 1.9375 0 0 Z " fill="#A3C8A7" transform="translate(347,247)"/>
<path d="M0 0 C0 2.62113708 -0.31292445 4.50935112 -1 7 C-2.32 6.34 -3.64 5.68 -5 5 C-3.35 3.35 -1.7 1.7 0 0 Z " fill="#97C29A" transform="translate(323,231)"/>
<path d="M0 0 C2.475 0.99 2.475 0.99 5 2 C5 2.99 5 3.98 5 5 C2.69 4.34 0.38 3.68 -2 3 C-1.34 2.01 -0.68 1.02 0 0 Z " fill="#9CB49E" transform="translate(327,227)"/>
</svg>
